<?xml version="1.0" encoding="utf-8"?>
<!-- Generator: Adobe Illustrator 23.0.1, SVG Export Plug-In . SVG Version: 6.00 Build 0)  -->
<svg version="1.1" id="Layer_1" xmlns="http://www.w3.org/2000/svg" xmlns:xlink="http://www.w3.org/1999/xlink" x="0px" y="0px"
	 viewBox="0 0 3000 3000" style="enable-background:new 0 0 3000 3000;" xml:space="preserve">
<style type="text/css">
	.st0{fill:#FFFFFF;}
	.st1{fill:none;}
</style>
<g>
	<path class="st0" d="M325.31,72.25V42.28h796.55c283.25,0,489.01,31.74,617.38,95.13c128.33,63.39,221.87,142.32,280.67,236.8
		c58.8,94.48,88.2,219.01,88.2,373.7c0,237.13-81.51,415.27-244.53,534.47s-384.14,176.22-663.36,171.16v-29.96
		c176.64,0,320.18-54.31,430.63-163.02c110.4-108.71,165.64-251.55,165.64-428.52c0-137.74-26.83-260.02-80.43-366.81
		c-53.61-106.79-128.98-188.02-226.08-243.64c-97.15-55.62-245.37-83.43-444.62-83.43H846.67v2386.61
		c0,135.02,15.22,215.5,45.65,241.34c30.43,25.84,88.11,38.76,173.08,38.76v29.96H325.31v-29.96
		c131.84,0,197.76-59.93,197.76-179.78V316.35c0-98.41-12.69-163.67-38.06-195.84S406.4,72.25,325.31,72.25z"/>
</g>
<polygon class="st1" points="1483.18,374.35 1596.5,261.03 1483.18,261.03 "/>
<path class="st0" d="M2417.37,781.76c10.42,54.71,15.65,112.43,15.65,173.15c0,176.97-55.24,319.81-165.64,428.52
	c-110.44,108.71-253.98,163.02-430.63,163.02v29.96c279.22,5.06,500.34-51.97,663.36-171.16
	c163.02-119.2,244.53-297.34,244.53-534.47c0-139.35-23.87-254.21-71.59-344.69L2417.37,781.76z"/>
<path class="st0" d="M1159.58,2747.97c0,119.85-65.92,179.78-197.76,179.78v29.96h740.09v-29.96c-84.97,0-142.65-12.92-173.08-38.76
	c-30.43-25.84-45.65-106.32-45.65-241.34v-931.69l-323.6,323.6V2747.97z"/>
</svg>
